<svg width="48" height="57" viewBox="0 0 48 57" fill="none" xmlns="http://www.w3.org/2000/svg">
<path d="M45.0468 42.7779L36.692 42.666L34.4863 37.4071C33.1185 34.1466 29.5581 32.3921 26.1394 33.2939L17.0609 35.198L30.7523 28.4086C34.4343 26.5102 38.953 28.1584 40.5464 31.9826L45.0468 42.7779Z" fill="url(#paint0_linear_310_1592)"/>
<path d="M10.4344 42.7916C4.82826 42.7865 1.31702 36.7298 4.0978 31.8621L10.1122 21.3335L22.5592 0L35.009 21.3335C36.0793 23.2068 35.3323 25.5992 33.3853 26.5324L16.8537 34.4516L19.241 30.6656L22.6352 25.276L24.7192 28.0333L25.9728 27.4308C28.0322 26.4388 28.7204 23.8436 27.42 21.9629L22.6352 15.0478L22.6963 14.9376L22.63 15.0427L22.5638 14.9445L11.1088 33.118C10.355 34.3139 11.2145 35.8719 12.628 35.8719H24.8368C28.6696 35.8719 31.7765 38.9788 31.7765 42.8116L10.4344 42.7916Z" fill="url(#paint1_linear_310_1592)"/>
<path d="M2.15426 56.0998H0L2.92812 48.3657H5.13778L8.0659 56.0998H5.91164L5.4142 54.7188H2.6517L2.15426 56.0998ZM3.14857 53.2819H4.91619L4.03209 50.6856L3.14857 53.2819Z" fill="#272626"/>
<path d="M8.61755 48.3651H13.0369C13.7588 48.3651 14.2893 48.529 14.628 48.8568C14.9667 49.1847 15.1363 49.6838 15.1363 50.3543C15.1363 50.7964 15.0403 51.155 14.849 51.4314C14.6571 51.7079 14.4218 51.9009 14.142 52.0117C14.7388 52.1739 15.1437 52.5714 15.3573 53.2048C15.431 53.4332 15.4681 53.6982 15.4681 54.0003C15.4681 54.7222 15.2985 55.2522 14.9598 55.5915C14.6211 55.9301 14.0906 56.0998 13.3687 56.0998H8.61755V48.3651ZM13.1477 50.5753C13.1477 50.1333 12.9266 49.9123 12.4846 49.9123H10.6062V51.4589H12.4846C12.9266 51.4589 13.1477 51.2378 13.1477 50.7958V50.5753ZM13.4795 53.6685C13.4795 53.2265 13.2585 53.0054 12.8164 53.0054H10.6068V54.5526H12.8164C13.2585 54.5526 13.4795 54.3316 13.4795 53.8895V53.6685Z" fill="#272626"/>
<path d="M16.4625 48.3651H21.1029C21.8762 48.3651 22.4381 48.5404 22.7877 48.89C23.1372 49.2401 23.3125 49.8015 23.3125 50.5748V51.6793C23.3125 52.4526 23.1372 53.0146 22.7877 53.3641C22.4376 53.7142 21.8762 53.889 21.1029 53.889H18.4512V56.0986H16.4625V48.3651ZM21.3239 50.5753C21.3239 50.1333 21.1029 49.9123 20.6608 49.9123H18.4512V52.343H20.6608C21.1029 52.343 21.3239 52.1219 21.3239 51.6799V50.5753Z" fill="#272626"/>
<path d="M31.2675 54.0004C31.2675 54.7737 31.0922 55.3357 30.7427 55.6852C30.3926 56.0353 29.8312 56.2101 29.0579 56.2101H26.296C25.5227 56.2101 24.9607 56.0353 24.6112 55.6852C24.2611 55.3357 24.0863 54.7737 24.0863 54.0004V50.4646C24.0863 49.6907 24.2611 49.1293 24.6112 48.7798C24.9613 48.4303 25.5227 48.2549 26.296 48.2549H29.0585C29.8318 48.2549 30.3932 48.4303 30.7433 48.7798C31.0934 49.1293 31.2681 49.6913 31.2681 50.4646V54.0004H31.2675ZM29.2789 50.4646C29.2789 50.0226 29.0579 49.8015 28.6158 49.8015H26.7374C26.2954 49.8015 26.0744 50.0226 26.0744 50.4646V54.0004C26.0744 54.4424 26.2954 54.6635 26.7374 54.6635H28.6158C29.0579 54.6635 29.2789 54.4424 29.2789 54.0004V50.4646Z" fill="#272626"/>
<path d="M32.3727 48.3651H37.013C37.7863 48.3651 38.3483 48.5404 38.6978 48.89C39.0473 49.2401 39.2227 49.8015 39.2227 50.5748V51.6793C39.2227 52.4526 39.0473 53.0146 38.6978 53.3641C38.3477 53.7142 37.7863 53.889 37.013 53.889H34.3613V56.0986H32.3727V48.3651ZM37.234 50.5753C37.234 50.1333 37.013 49.9123 36.571 49.9123H34.3613V52.343H36.571C37.013 52.343 37.234 52.1219 37.234 51.6799V50.5753Z" fill="#272626"/>
<path d="M41.598 56.0998H39.4437L42.3718 48.3657H44.5815L47.5096 56.0998H45.3554L44.8579 54.7188H42.096L41.598 56.0998ZM42.5923 53.2819H44.3599L43.4758 50.6856L42.5923 53.2819Z" fill="#272626"/>
<defs>
<linearGradient id="paint0_linear_310_1592" x1="17.7503" y1="31.6535" x2="46.1366" y2="37.1711" gradientUnits="userSpaceOnUse">
<stop stop-color="#8CC63F"/>
<stop offset="1" stop-color="#009245"/>
</linearGradient>
<linearGradient id="paint1_linear_310_1592" x1="3.12483" y1="21.4059" x2="35.4986" y2="21.4059" gradientUnits="userSpaceOnUse">
<stop stop-color="#29ABE2"/>
<stop offset="1" stop-color="#2E3192"/>
</linearGradient>
</defs>
</svg>
